<?xml version="1.0" encoding="UTF-8"?> <svg xmlns="http://www.w3.org/2000/svg" xmlns:xlink="http://www.w3.org/1999/xlink" width="50px" height="35px" viewBox="0 0 50 35" version="1.1"><title>email</title><g id="Page-1" stroke="none" stroke-width="1" fill="none" fill-rule="evenodd"><g id="TRB-Contact" transform="translate(-138.000000, -1060.000000)" fill="#8B7054" fill-rule="nonzero"><g id="email" transform="translate(138.000000, 1060.000000)"><path d="M5.77066404,0 L44.229336,0 C45.8160317,0 47.2612796,0.651310928 48.3051822,1.70127459 C49.3490848,2.75123825 50,4.19996152 50,5.79264867 L50,29.2073513 C50,30.8000919 49.351161,32.2508459 48.3051822,33.2987254 C47.2592034,34.346605 45.8159784,35 44.229336,35 L5.77066404,35 C4.18396833,35 2.73872038,34.3486891 1.69481781,33.2987254 C0.650915231,32.2487617 0,30.8000385 0,29.2073513 L0,5.79264867 C0,4.19990809 0.650915231,2.74915414 1.69481781,1.70127459 C2.73872038,0.653395037 4.18402157,0 5.77066404,0 L5.77066404,0 Z M2.81979864,30.7919158 L18.1687705,17.4990381 L2.81979864,4.20616041 C2.56609768,4.68001209 2.42052946,5.22064078 2.42052946,5.79264867 L2.42052946,29.2073513 C2.42052946,29.7793058 2.56609768,30.3199452 2.81979864,30.7938396 L2.81979864,30.7919158 Z M20.0155236,19.0979241 L4.67506942,32.3822516 C5.02027223,32.5033224 5.38832388,32.5701207 5.77305966,32.5701207 L44.2317316,32.5701207 C44.6143645,32.5701207 44.9845403,32.5054118 45.3297218,32.3822516 L29.9892676,19.0979241 L25.7990175,22.7259312 C25.3539974,23.1204585 24.6739834,23.1329845 24.2123218,22.7321937 L20.0155236,19.0979241 Z M31.8333589,17.4989312 L47.1823308,30.7918089 C47.4381133,30.3179572 47.5816,29.7773286 47.5816,29.2053207 L47.5816,5.790618 C47.5816,5.21866354 47.4360318,4.67802417 47.1823308,4.20412974 L31.8333589,17.4970074 L31.8333589,17.4989312 Z M4.67240763,2.61518331 L20.7847822,16.5696322 L20.8159752,16.5967689 L24.9979206,20.2184702 L29.179866,16.5946848 L29.211059,16.5696354 L45.3234336,2.61304897 C44.9782308,2.49197824 44.6101791,2.42517986 44.2254433,2.42517986 L5.76677143,2.42517986 C5.38413847,2.42517986 5.01396271,2.48988879 4.6687812,2.61304897 L4.67240763,2.61518331 Z" id="Shape"></path></g></g></g></svg> 