<?xml version="1.0" encoding="UTF-8"?> <svg xmlns="http://www.w3.org/2000/svg" xmlns:xlink="http://www.w3.org/1999/xlink" width="47px" height="55px" viewBox="0 0 47 55" version="1.1"><title>online_banking</title><g id="Page-1" stroke="none" stroke-width="1" fill="none" fill-rule="evenodd"><g id="TRB-Contact" transform="translate(-943.000000, -1050.000000)" fill="#8B7054" fill-rule="nonzero"><g id="online_banking" transform="translate(943.000000, 1050.000000)"><path d="M4.44594595,0 C2.00461351,0 0,1.972625 0,4.375 L0,50.625 C0,53.027375 2.00461351,55 4.44594595,55 L29.8513514,55 C32.2926838,55 34.2972973,53.027375 34.2972973,50.625 L34.2972973,34.375 L43.1891892,34.375 C45.2782122,34.375 47,32.6806875 47,30.625 L47,14.375 C47,12.3193125 45.2782122,10.625 43.1891892,10.625 L34.2972973,10.625 L34.2972973,4.375 C34.2972973,1.972625 32.2926838,0 29.8513514,0 L4.44594595,0 Z M4.44594595,2.5 L29.8513514,2.5 C30.9280959,2.5 31.7567568,3.3154375 31.7567568,4.375 L31.7567568,6.25 L2.54054054,6.25 L2.54054054,4.375 C2.54054054,3.3154375 3.36920135,2.5 4.44594595,2.5 Z M2.54054054,8.75 L31.7567568,8.75 L31.7567568,10.625 L19.0540541,10.625 C16.9650311,10.625 15.2432432,12.3193125 15.2432432,14.375 L15.2432432,30.625 C15.2432432,32.6806875 16.9650311,34.375 19.0540541,34.375 L19.6891892,34.375 L19.6891892,39.375 C19.69167,39.8339875 19.9745046,40.2783125 20.3913311,40.483375 C20.8081385,40.68845 21.3390797,40.6420687 21.7136824,40.3710688 L30.0098176,34.3749437 L31.7564392,34.3749437 L31.7564392,42.4999437 L2.54022297,42.4999437 L2.54054054,8.75 Z M19.0540541,13.125 L43.1891892,13.125 C43.9161014,13.125 44.4594595,13.6596688 44.4594595,14.375 L44.4594595,30.625 C44.4594595,31.3403125 43.9161204,31.875 43.1891892,31.875 L29.6131757,31.875 C29.3452249,31.8725587 29.0772804,31.9555687 28.8589527,32.109375 L22.2294122,36.8945 L22.2294122,33.125 C22.2294122,32.4706875 21.6240522,31.875 20.9591419,31.875 L19.0537365,31.875 C18.3268243,31.875 17.7834662,31.3403312 17.7834662,30.625 L17.7834662,14.375 C17.7834662,13.6596875 18.3268053,13.125 19.0537365,13.125 L19.0540541,13.125 Z M2.54054054,45 L31.7567568,45 L31.7567568,50.625 C31.7567568,51.6845625 30.9280959,52.5 29.8513514,52.5 L4.44594595,52.5 C3.36920135,52.5 2.54054054,51.6845625 2.54054054,50.625 L2.54054054,45 Z M17.1486486,46.875 C18.2005595,46.875 19.0540541,47.714875 19.0540541,48.75 C19.0540541,49.785125 18.2005595,50.625 17.1486486,50.625 C16.0967378,50.625 15.2432432,49.785125 15.2432432,48.75 C15.2432432,47.714875 16.0967378,46.875 17.1486486,46.875 Z M32.4532556,14 C33.048455,14 33.5301856,14.4858132 33.5301856,15.0860569 L33.5301856,16.8004968 L35.5780525,17.1869049 C36.1621002,17.2975418 36.5470847,17.8659101 36.4373776,18.4549076 C36.3276704,19.0439051 35.765945,19.4321859 35.1800307,19.3215154 L32.0775658,18.734381 C31.2182407,18.5730835 30.3496162,19.0270118 30.1803558,19.7285286 C30.0966565,20.0755558 30.2138393,20.3569213 30.3254368,20.5313665 C30.5393277,20.8652556 30.9187745,21.1053531 31.3688928,21.1897617 L33.9301072,21.6737022 C34.958707,21.8688054 35.8533631,22.4558917 36.3871856,23.2887418 C36.8689257,24.0409191 37.0214443,24.9263025 36.8149863,25.7816257 C36.4597237,27.2578409 35.0926697,28.3101545 33.5283905,28.4508372 L33.5283429,29.9120704 C33.5283429,30.512314 33.0466123,31 32.4514129,31 C31.8562135,31 31.3744829,30.5141868 31.3744829,29.9139431 L31.3744829,28.1995032 L29.3266161,27.8130951 C28.7425683,27.7024582 28.3575505,27.1340995 28.467291,26.5450924 C28.5769981,25.9560949 29.1387235,25.5659366 29.7246378,25.6784846 L32.8271028,26.265619 C33.6864278,26.4269165 34.5569141,25.9729882 34.7243127,25.2714714 C34.8061503,24.9244442 34.690834,24.6430787 34.5792317,24.4686335 C34.3671979,24.1347444 33.9858941,23.8946469 33.5357757,23.8102383 L30.9745613,23.3262978 C29.9478662,23.1311946 29.051353,22.5422355 28.5193876,21.7112582 C28.0357905,20.9590809 27.8832718,20.0736975 28.0897298,19.2183743 C28.4449924,17.7402863 29.8120464,16.6879727 31.3763257,16.54729 L31.3763257,15.0860569 C31.3763257,14.4858132 31.8580562,14 32.4532556,14 Z" id="Shape"></path></g></g></g></svg> 