<?xml version="1.0" encoding="UTF-8"?> <svg xmlns="http://www.w3.org/2000/svg" viewBox="0 0 501.37 87.53"><defs><style>.cls-1{fill:#fff;}</style></defs><g id="Layer_2" data-name="Layer 2"><g id="Layer_1-2" data-name="Layer 1"><g id="star"><polygon class="cls-1" points="19.66 64.49 41.59 48.56 54.16 57.81 24.26 79.26 19.66 64.49"></polygon><polygon class="cls-1" points="57.11 69.03 48.74 43.25 61.42 34.16 72.58 69.23 57.11 69.03"></polygon><polygon class="cls-1" points="73.09 35.05 45.99 35.05 41.26 20.18 78.06 20.41 73.09 35.05"></polygon><polygon class="cls-1" points="45.58 9.25 37.2 35.03 21.6 34.94 33.18 0 45.58 9.25"></polygon><polygon class="cls-1" points="12.63 27.39 34.55 43.33 29.64 58.14 0 36.32 12.63 27.39"></polygon><path class="cls-1" d="M73.92,65.51v-.42h3v.42H75.66v3.32h-.5V65.51Z"></path><path class="cls-1" d="M78,65.09l1.18,3.14,1.18-3.14h.68v3.74h-.47V65.72h0L79.4,68.83H79l-1.17-3.11h0v3.11h-.47V65.09Z"></path></g><path id="name" class="cls-1" d="M484.08,38.21c0-2.12.71-2.18,3.08-2.18v-1.1c-1.51,0-3,0-4.52.07s-3,0-4.53-.07V36c2.51,0,3.08.09,3.08,2.18V53.93c0,2.09-.57,2.18-3.08,2.18v1.1c1.51,0,3,0,4.53-.07s3,0,4.52.07v-1.1c-2.5,0-3.08-.09-3.08-2.18v-7.8a121.68,121.68,0,0,1,10,10.56l.39.52c.9,0,1.76,0,2.66-.07s1.77,0,2.67.07v-1.1c-2.09.13-2.92-1-3.82-2-3.11-3.08-6.07-6.33-9.08-9.5l6.7-6.23c2.09-1.89,2.67-2.34,5.43-2.57v-.93c-1,0-1.93,0-2.89.07s-1.93,0-2.92-.07v.65c.38.06.58.32.35.74-9.43,9-9.5,9.08-9.53,9.08ZM456.2,53.93c0,2.06-.57,2.18-2.95,2.18v1.1c1.25,0,2.5,0,3.76-.07s2.5,0,3.75.07v-1.1c-2.37,0-2.95-.12-2.95-2.18V38.4L472,57.14h2.09V38.21c0-2.06.45-2.18,2.76-2.18v-1.1c-1.22,0-2.44,0-3.66.07s-2.44,0-3.66-.07V36c2.38,0,3,.12,3,2.18V53.29L458.74,34.93c-.9,0-1.83,0-2.73.07s-1.83,0-2.76-.07V36c2.28,0,2.95.09,2.95,2.18Zm-13-7.47h-6.86l3.52-8.57,3.21,8.24ZM439.65,35l-6.9,16.75a26.81,26.81,0,0,1-1.6,3.37c-.77.93-1.35.8-2.44.93v1.16c1.25,0,2.54,0,3.79-.07s2.53,0,3.78.07V56.05c-1.06,0-2.66,0-2.66-1.41a5.36,5.36,0,0,1,.29-1.41l2-5.55h7.7L445.69,53a5,5,0,0,1,.51,1.77c0,1.31-2.79,1.25-2.79,1.25v1.16c1.48,0,2.95,0,4.43-.07s2.92,0,4.39.07v-1.1c-2.53.2-3.37-2.56-3.72-3.49L441.77,35ZM402.92,57.23c2.16,0,4.31,0,6.47-.09s4.63,0,6.92.09,6.23-.22,8.39-1.37c3.21-1.65,3.94-4.13,3.94-7.56,0-5-2.38-7.34-7.33-7.89v-.09c4.31-.74,6.46-2.75,6.46-7.25,0-7-4.54-7.65-10.36-7.65-1.24,0-6.7.09-8,.09-2.16,0-4.31,0-6.47-.09V27c4.45,0,4.4.64,4.4,3.11V52.56c0,2.47.05,3.12-4.4,3.12Zm8.53-29.84c1.6-.09,3.21-.23,4.86-.23,5,0,6.87.92,6.87,6.28,0,3.94-1.51,6.19-5.5,6.19h-6.23Zm0,14h5.32c5.13,0,7.24,1.47,7.24,6.83,0,2.71-.41,5.78-3.48,6.56a23,23,0,0,1-6.6.64l-2.48-.14ZM371.14,57.14H388.5V50.63h-1.7c-.45,4.55-.71,5.13-4,5.2h-5.68V38.21c0-1.77,0-2.18,3.08-2.18v-1.1c-1.51,0-3,0-4.52.07s-3,0-4.53-.07V36c3.11,0,3.08.45,3.08,2.18V53.93c0,1.74,0,2.18-3.08,2.18ZM360.72,46.46h-6.87l3.53-8.57,3.21,8.24ZM357.19,35l-6.9,16.75a26.85,26.85,0,0,1-1.61,3.37c-.77.93-1.35.8-2.44.93v1.16c1.26,0,2.54,0,3.79-.07s2.54,0,3.79.07V56.05c-1.06,0-2.66,0-2.66-1.41a5.78,5.78,0,0,1,.28-1.41l2-5.55h7.7L363.22,53a4.82,4.82,0,0,1,.52,1.77c0,1.31-2.8,1.25-2.8,1.25v1.16c1.48,0,2.95,0,4.43-.07s2.92,0,4.4.07v-1.1c-2.54.2-3.37-2.56-3.72-3.49L359.31,35ZM326.54,53.93c0,2.06-.58,2.18-3,2.18v1.1c1.25,0,2.5,0,3.75-.07s2.5,0,3.76.07v-1.1c-2.38,0-3-.12-3-2.18V38.4l14.19,18.74h2.08V38.21c0-2.06.45-2.18,2.76-2.18v-1.1c-1.22,0-2.44,0-3.66.07s-2.44,0-3.65-.07V36c2.37,0,2.95.12,2.95,2.18V53.29L329.07,34.93c-.89,0-1.82,0-2.72.07s-1.84,0-2.76-.07V36c2.27,0,3,.09,3,2.18ZM311.71,35.64c6.45,0,7.7,4.94,7.7,10.34s-1.25,10.36-7.7,10.36S304,51.37,304,46s1.26-10.34,7.71-10.34m0,21.82c8.73,0,11-3.43,11-11.48s-2.63-11.46-11-11.46-11,3.33-11,11.46,2.67,11.48,11,11.48m-17.79-3.53c0,2.09-.57,2.18-3.07,2.18v1.1c1.5,0,3,0,4.52-.07s3,0,4.52.07v-1.1c-2.5,0-3.08-.09-3.08-2.18V38.21c0-2.12.71-2.18,3.08-2.18v-1.1c-1.5,0-3,0-4.52.07s-3,0-4.52-.07V36c2.5,0,3.07.09,3.07,2.18Zm-9.23,1.13a10,10,0,0,1-4.84,1.25c-6.52,0-8-4.11-8-10.05,0-5.49,1.38-10.75,7.9-10.55,4.46,0,5.62.77,6,5.23h1.89V35.77a25.18,25.18,0,0,0-7.86-1.25c-8.06.16-11.23,4-11.23,11.61,0,7.39,2.69,11.33,10.42,11.33a28.2,28.2,0,0,0,8.8-1.41,4.08,4.08,0,0,1-.13-1.28v-3c0-1.68.06-2.13,2.5-2.25V48.48c-.89,0-2.4,0-3.91.06s-3,0-5.33-.06v1.09c3.82,0,3.85.16,3.85,2.22Zm-36.06,2.08h17.43V50.59h-1.7c-.45,4.53-.71,5.11-4,5.17H254.6V46.1h2.5c3.86,0,3,.8,3.37,3.31h1.42v-7.7h-1.42c0,3.11-.48,3.3-3.37,3.3h-2.5V36.15H260c4.08,0,4.08.36,4.34,4.43h1.7V34.93H248.63V36c3.11,0,3.08.45,3.08,2.18V53.87c0,1.74,0,2.18-3.08,2.18Zm-22-29.93c1.74-.05,3.43-.14,5.18-.14,4.72,0,6.69,1.23,6.69,6.23,0,6.33-4.68,6.51-9.68,6.51a11.47,11.47,0,0,1-2.19-.09Zm0,14.07a10.15,10.15,0,0,1,3.34.32c1.42.5,7.84,10.64,11,15.63,1.1,0,2.25,0,3.34-.09s2.21,0,3.31.09V55.68c-2.43-.19-3.21-1.42-4.45-3-1.33-1.74-6.74-9.81-8.12-12,5-.55,8.12-2.71,8.12-8.07,0-6.79-4.17-7.15-9.9-7.15-2.2,0-7.66.09-8.67.09-2.15,0-4.31,0-6.46-.09V27c4.45,0,4.4.64,4.4,3.11V52.56c0,2.47.05,3.12-4.4,3.12v1.55c2.15,0,4.31,0,6.46-.09s4.31,0,6.47.09V55.68c-4.45,0-4.4-.65-4.4-3.12Zm-35.3,2.06a3.62,3.62,0,0,1-2.6-3.65c0-2.83,2.08-3.95,4.65-3.95,4.94,0,4.37,2.79,4.69,5.26h1.79V35.74a18.35,18.35,0,0,0-6.61-1.22c-3.85,0-7.31,1.86-7.31,6.13,0,3.72,2.69,4.81,5.71,5.9,2.76,1,6.22,1.77,6.22,5.33,0,3.21-2.66,4.49-5.49,4.49-5.68,0-4.87-2.95-5.19-6.1H185v5.81a16.82,16.82,0,0,0,6.93,1.38c4.43,0,8.79-1.38,8.79-6.61,0-3.72-2.69-5.1-5.74-6.19ZM174.5,46.46h-6.87l3.53-8.57,3.22,8.24ZM171,35l-6.9,16.75a25.49,25.49,0,0,1-1.6,3.37c-.77.93-1.35.8-2.44.93v1.16c1.25,0,2.54,0,3.79-.07s2.53,0,3.78.07V56.05c-1,0-2.66,0-2.66-1.41a5.36,5.36,0,0,1,.29-1.41l2-5.55h7.7L177,53a5,5,0,0,1,.51,1.77c0,1.31-2.79,1.25-2.79,1.25v1.16c1.47,0,3,0,4.43-.07s2.91,0,4.39.07v-1.1c-2.53.2-3.37-2.56-3.72-3.49L173.09,35ZM146.91,46l-6.51,8.6c-.9,1.18-1.44,1.38-3.24,1.53v1.1c1.35,0,2.66,0,4-.07s2.66,0,4,.07v-1.1c-.55-.06-2.21-.12-2.5-.8-.13-.25-.07-.57.25-1l4.69-7.23,4.27,6a4.52,4.52,0,0,1,1,2.08c0,.78-2.25.9-2.47.93v1.1c1.48,0,3,0,4.43-.07s2.95,0,4.43.07v-1.1C157.34,56,157,55.47,156,54l-6.52-9.25,4.14-5.48c1.61-2.12,2.12-3.15,4.81-3.34v-1c-1.31,0-2.63,0-3.94.07s-2.63,0-4-.07v1c.58,0,2.15,0,2.44.71a.94.94,0,0,1-.19.9l-4.08,6.22-3.43-5a6.29,6.29,0,0,1-1-1.57c-.44-1.38,2-1.19,2.76-1.22v-1c-1.54,0-3.08,0-4.62.07s-3.11,0-4.65-.07v1c2.57,0,3.21,1.57,4.65,3.6ZM118,57.14h17.43V50.59h-1.7c-.45,4.53-.71,5.11-4,5.17H124V46.1h2.5c3.85,0,3,.8,3.37,3.31h1.41v-7.7h-1.41c0,3.11-.48,3.3-3.37,3.3H124V36.15h5.42c4.08,0,4.08.36,4.34,4.43h1.7V34.93H118V36c3.11,0,3.08.45,3.08,2.18V53.87c0,1.74,0,2.18-3.08,2.18Zm.17-31.63H90.68v8.07H93c1-7,1.33-6.33,9.39-6.33V52.56c0,3-.87,3.12-4.63,3.12v1.55c2.39,0,4.54,0,6.7-.09s4.31,0,6.69.09V55.68c-3.76,0-4.63-.1-4.63-3.12V27.25c8.21,0,8.3-.64,9.4,6.33h2.29Z"></path><g id="slogan"><path class="cls-1" d="M307.62,72.46h-1c-.47-3-.51-2.71-4-2.71V80.61c0,1.3.37,1.33,2,1.33v.68c-1,0-1.95,0-2.87-.05s-1.85,0-2.88.05v-.68c1.62,0,2,0,2-1.33V69.75c-3.46,0-3.58-.29-4,2.71h-1V69h11.8Z"></path><path class="cls-1" d="M318.14,80.59c0,1.14.08,1.4,1.75,1.4v.63c-.84,0-1.69,0-2.55-.05s-1.71,0-2.56.05V82c1.47-.1,1.75,0,1.75-1.4V77.1c0-1.63,0-3-2-3s-2.43,1.2-2.43,2.91v3.58c0,1.14.07,1.4,1.75,1.4v.63c-.85,0-1.7,0-2.56-.05s-1.71,0-2.56.05V82c1.48-.1,1.75,0,1.75-1.4V70c0-1.14-.12-1.4-1.75-1.4v-.63h3.38v6.65h0c.46-.63,1.24-1.26,3.19-1.34,2.52,0,2.81,1.24,2.81,3.39Z"></path><path class="cls-1" d="M323,78c0,1.79,0,4.07,2.52,4.07,2.07,0,2.11-1.39,2.34-2.32,0-.31.32-.31.67-.31s.63,0,.61.33c-.31,2.13-1.85,3-3.89,3-3.33,0-4-2.32-4-5.29a3.86,3.86,0,0,1,4.23-4.25c3,0,4,2,3.84,4.8Zm4.51-.67c.1-1.75-.28-3.5-2.24-3.5s-2.3,1.79-2.27,3.5Z"></path><path class="cls-1" d="M339.57,85.53c0,1.27.28,1.37,2,1.37v.63l-2.82,0-2.55,0V86.9c1.43-.1,1.73,0,1.73-1.37V75.44c0-1.13-.1-1.38-1.73-1.38v-.63h3.26v1.18a3.54,3.54,0,0,1,3.09-1.38c2.89,0,3.86,2,3.86,4.62,0,3.13-1.15,4.92-4.41,4.92a3.65,3.65,0,0,1-2.46-1Zm0-5.69a2.14,2.14,0,0,0,2.34,2.2c2.66,0,2.75-2.06,2.75-4.17,0-1.94-.27-3.89-2.63-3.89a2.23,2.23,0,0,0-2.46,2.36Z"></path><path class="cls-1" d="M350.35,78c0,1.79,0,4.07,2.52,4.07,2.07,0,2.1-1.39,2.34-2.32,0-.31.31-.31.67-.31s.63,0,.61.33c-.32,2.13-1.85,3-3.9,3-3.32,0-4-2.32-4-5.29a3.86,3.86,0,0,1,4.23-4.25c3,0,4,2,3.84,4.8Zm4.51-.67c.09-1.75-.28-3.5-2.25-3.5s-2.3,1.79-2.26,3.5Z"></path><path class="cls-1" d="M367.43,78c0,3-1.06,4.76-4.47,4.78S358.5,81,358.5,78c0-3.24,1.39-4.76,4.46-4.76S367.43,74.75,367.43,78Zm-7.16,0c0,2,.12,4.11,2.69,4.11s2.7-2.08,2.7-4.11-.12-4.09-2.7-4.09S360.27,76,360.27,78Z"></path><path class="cls-1" d="M372.37,85.53c0,1.27.27,1.37,2,1.37v.63l-2.81,0-2.56,0V86.9c1.44-.1,1.74,0,1.74-1.37V75.44c0-1.13-.1-1.38-1.74-1.38v-.63h3.27v1.18a3.54,3.54,0,0,1,3.09-1.38c2.89,0,3.85,2,3.85,4.62,0,3.13-1.14,4.92-4.4,4.92a3.63,3.63,0,0,1-2.46-1Zm0-5.69a2.14,2.14,0,0,0,2.34,2.2c2.65,0,2.75-2.06,2.75-4.17,0-1.94-.27-3.89-2.63-3.89a2.23,2.23,0,0,0-2.46,2.36Z"></path><path class="cls-1" d="M382.93,69.91c0-1.12-.1-1.36-1.75-1.36v-.63h3.37V80.61c0,1.12.07,1.38,1.75,1.38v.63c-.85,0-1.7-.05-2.56-.05s-1.71,0-2.56.05V82c1.65,0,1.75-.24,1.75-1.36Z"></path><path class="cls-1" d="M389.7,78c0,1.79,0,4.07,2.52,4.07,2.06,0,2.1-1.39,2.34-2.32,0-.31.31-.31.67-.31s.63,0,.61.33c-.32,2.13-1.85,3-3.9,3-3.32,0-4-2.32-4-5.29,0-2.71,1.55-4.25,4.23-4.25,3,0,4,2,3.83,4.8Zm4.5-.67c.1-1.75-.27-3.5-2.24-3.5s-2.3,1.79-2.26,3.5Z"></path><path class="cls-1" d="M404.73,75.77c-.65-1.6-.55-1.79-2.1-1.79v-.59l2.34,0,2.32,0V74c-.35,0-1.18,0-1.22.53a.85.85,0,0,0,.06.36l2.32,6.4,2.16-6.15a1.16,1.16,0,0,0,.12-.45c0-.77-1-.69-1.47-.69v-.59l1.81,0,1.79,0V74c-1,.08-1.17.61-1.64,1.87l-2.61,6.66c-.71,1.85-1.44,5-4,5A1.42,1.42,0,0,1,403,86.37a.79.79,0,0,1,.22-.68c.92-.6,1.28.62,2.06.78,1.42.27,2.25-3,2.56-3.9h-.63Z"></path><path class="cls-1" d="M423.19,78c0,3-1.07,4.76-4.47,4.78S414.25,81,414.25,78c0-3.24,1.4-4.76,4.47-4.76S423.19,74.75,423.19,78ZM416,78c0,2,.11,4.11,2.69,4.11s2.7-2.08,2.7-4.11-.12-4.09-2.7-4.09S416,76,416,78Z"></path><path class="cls-1" d="M432.31,81.47a4.38,4.38,0,0,1-3,1.3c-1.78,0-2.95-.53-2.95-2.48v-4.9c0-1.11-.08-1.37-1.75-1.37v-.59h3.36v5.82c0,1.55.12,2.69,2,2.69,2.29,0,2.4-1.53,2.4-3.36V75.39c0-1.08-.07-1.37-1.65-1.37v-.59h3.27v7.18c0,1.12.08,1.38,1.75,1.38v.63c-.61,0-1.18,0-1.77-.05s-1.06,0-1.6.05Z"></path><path class="cls-1" d="M445.48,77.28a11.73,11.73,0,0,0,2.61-2.79,1.86,1.86,0,0,0,.34-1.06h3.28V74c-2.2,0-2.75.94-4.82,3l2.68,2.89c1.77,1.91,2.12,2.15,3,2.15v.65c-.47,0-1,0-1.44-.05s-1,0-1.43.05a35.24,35.24,0,0,0-4.23-4.69v2.68c0,1.12.08,1.38,1.75,1.38v.63c-.85,0-1.7,0-2.56-.05s-1.71,0-2.56.05V82c1.68,0,1.75-.32,1.75-1.38V69.93c0-1.24-.13-1.32-1.75-1.38v-.63h3.37Z"></path><path class="cls-1" d="M456.34,74.53a4.39,4.39,0,0,1,3.3-1.3c2.52,0,2.81,1.24,2.81,3.39v4c0,1.12.08,1.4,1.71,1.4v.63c-.8,0-1.65,0-2.51-.05s-1.71,0-2.5.05V82c1.44-.1,1.69,0,1.69-1.4V77.1c0-1.63,0-3-2-3s-2.39,1.18-2.39,2.91v3.58c0,1.1.05,1.4,1.67,1.4v.63c-.77,0-1.62,0-2.48-.05s-1.71,0-2.56.05V82c1.48-.1,1.75,0,1.75-1.4V75.41c0-1.26-.13-1.33-1.75-1.39v-.59h3.27Z"></path><path class="cls-1" d="M474.57,78c0,3-1.06,4.76-4.46,4.78S465.65,81,465.65,78c0-3.24,1.39-4.76,4.46-4.76S474.57,74.75,474.57,78Zm-7.16,0c0,2,.12,4.11,2.7,4.11S472.8,80,472.8,78s-.11-4.09-2.69-4.09S467.41,76,467.41,78Z"></path><path class="cls-1" d="M481.07,81.12l2.6-7.69H485l2.25,7.77,1.8-6.06a1.27,1.27,0,0,0,.08-.51c0-.65-.92-.51-1.35-.63v-.61l1.9,0,1.89,0V74c-1.24.15-1.36.45-1.77,1.65l-2.4,6.92H486l-2.18-7.39-2.54,7.39h-1.45l-1.52-5c-1.06-3.5-.94-3.37-2.43-3.52v-.63l2.34,0,2.32,0V74c-1,.06-1.28.14-1.32.65a9.81,9.81,0,0,0,.43,2Z"></path><path class="cls-1" d="M492.05,81.47a1.12,1.12,0,1,1,1.1,1.3A1.15,1.15,0,0,1,492.05,81.47Z"></path><path class="cls-1" d="M495.47,70.23h-1.25v-.41h3v.41H496v3.33h-.5Z"></path><path class="cls-1" d="M497.64,69.82h.68L499.51,73l1.18-3.14h.68v3.74h-.47V70.44h0l-1.17,3.12h-.42l-1.17-3.12h0v3.12h-.48Z"></path></g></g></g></svg> 