<?xml version="1.0" encoding="UTF-8"?> <svg xmlns="http://www.w3.org/2000/svg" viewBox="0 0 499.8 79.26"><defs><style>.cls-1{fill:#866b4b;}.cls-2{fill:#005288;}</style></defs><g id="Layer_2" data-name="Layer 2"><g id="Layer_1-2" data-name="Layer 1"><g id="Layer_2-2" data-name="Layer 2"><g id="Layer_1-2-2" data-name="Layer 1-2"><g id="star"><polygon class="cls-1" points="19.66 64.49 41.59 48.56 54.16 57.81 24.26 79.26 19.66 64.49"></polygon><polygon class="cls-1" points="57.11 69.03 48.74 43.25 61.42 34.16 72.58 69.23 57.11 69.03"></polygon><polygon class="cls-1" points="73.09 35.05 45.99 35.05 41.26 20.18 78.06 20.41 73.09 35.05"></polygon><polygon class="cls-1" points="45.58 9.25 37.2 35.03 21.6 34.94 33.18 0 45.58 9.25"></polygon><polygon class="cls-1" points="12.63 27.39 34.55 43.33 29.64 58.14 0 36.32 12.63 27.39"></polygon><path class="cls-1" d="M73.92,65.51v-.42h3v.42H75.66v3.32h-.5V65.51Z"></path><path class="cls-1" d="M78,65.09l1.18,3.14,1.18-3.14H81v3.74h-.47V65.72h0L79.4,68.83H79l-1.17-3.11h0v3.11h-.47V65.09Z"></path></g><path id="name" class="cls-2" d="M484.08,38.21c0-2.12.71-2.18,3.08-2.18v-1.1c-1.51,0-3,0-4.52.07s-3,0-4.53-.07V36c2.51,0,3.08.09,3.08,2.18V53.93c0,2.09-.57,2.18-3.08,2.18v1.1c1.51,0,3,0,4.53-.07s3,0,4.52.07v-1.1c-2.5,0-3.08-.09-3.08-2.18v-7.8a121.67,121.67,0,0,1,10,10.56l.39.52c.9,0,1.76,0,2.66-.07a17,17,0,0,1,2.67.07v-1.1c-2.09.13-2.92-1-3.82-2-3.11-3.08-6.07-6.33-9.08-9.5l6.7-6.23c2.09-1.89,2.67-2.34,5.43-2.57v-.93c-1,0-1.93,0-2.89.07a20.45,20.45,0,0,1-2.92-.07v.65c.38.06.58.32.35.74-9.43,9-9.5,9.08-9.53,9.08ZM456.2,53.93c0,2.06-.57,2.18-2.95,2.18v1.1c1.25,0,2.5,0,3.76-.07a33.48,33.48,0,0,1,3.75.07v-1.1c-2.37,0-2.95-.12-2.95-2.18V38.4L472,57.14h2.09V38.21c0-2.06.45-2.18,2.76-2.18v-1.1c-1.22,0-2.44,0-3.66.07a31.94,31.94,0,0,1-3.66-.07V36c2.38,0,3,.12,3,2.18V53.29L458.74,34.93c-.9,0-1.83,0-2.73.07a18.28,18.28,0,0,1-2.76-.07V36c2.28,0,2.95.09,2.95,2.18Zm-13-7.47h-6.86l3.52-8.57,3.21,8.24ZM439.65,35l-6.9,16.75a26,26,0,0,1-1.6,3.37c-.77.93-1.35.8-2.44.93v1.16c1.25,0,2.54,0,3.79-.07a34.06,34.06,0,0,1,3.78.07V56.05c-1.06,0-2.66,0-2.66-1.41a5.2,5.2,0,0,1,.29-1.41l2-5.55h7.7L445.69,53a4.94,4.94,0,0,1,.51,1.77c0,1.31-2.79,1.25-2.79,1.25v1.16c1.48,0,2.95,0,4.43-.07s2.92,0,4.39.07v-1.1c-2.53.2-3.37-2.56-3.72-3.49L441.77,35ZM402.92,57.23c2.16,0,4.31,0,6.47-.09s4.63,0,6.92.09,6.23-.22,8.39-1.37c3.21-1.65,3.94-4.13,3.94-7.56,0-5-2.38-7.34-7.33-7.89v-.09c4.31-.74,6.46-2.75,6.46-7.25,0-7-4.54-7.65-10.36-7.65-1.24,0-6.7.09-8,.09-2.16,0-4.31,0-6.47-.09V27c4.45,0,4.4.64,4.4,3.11V52.56c0,2.47.05,3.12-4.4,3.12Zm8.53-29.84c1.6-.09,3.21-.23,4.86-.23,5,0,6.87.92,6.87,6.28,0,3.94-1.51,6.19-5.5,6.19h-6.23Zm0,14h5.32c5.13,0,7.24,1.47,7.24,6.83,0,2.71-.41,5.78-3.48,6.56a22.92,22.92,0,0,1-6.6.64l-2.48-.14ZM371.14,57.14H388.5V50.63h-1.7c-.45,4.55-.71,5.13-4,5.2h-5.68V38.21c0-1.77,0-2.18,3.08-2.18v-1.1c-1.51,0-3,0-4.52.07s-3,0-4.53-.07V36c3.11,0,3.08.45,3.08,2.18V53.93c0,1.74,0,2.18-3.08,2.18ZM360.72,46.46h-6.87l3.53-8.57,3.21,8.24ZM357.19,35l-6.9,16.75a27.41,27.41,0,0,1-1.61,3.37c-.77.93-1.35.8-2.44.93v1.16c1.26,0,2.54,0,3.79-.07a34.24,34.24,0,0,1,3.79.07V56.05c-1.06,0-2.66,0-2.66-1.41a5.69,5.69,0,0,1,.28-1.41l2-5.55h7.7L363.22,53a4.76,4.76,0,0,1,.52,1.77c0,1.31-2.8,1.25-2.8,1.25v1.16c1.48,0,2.95,0,4.43-.07s2.92,0,4.4.07v-1.1c-2.54.2-3.37-2.56-3.72-3.49L359.31,35ZM326.54,53.93c0,2.06-.58,2.18-3,2.18v1.1c1.25,0,2.5,0,3.75-.07a33.75,33.75,0,0,1,3.76.07v-1.1c-2.38,0-3-.12-3-2.18V38.4l14.19,18.74h2.08V38.21c0-2.06.45-2.18,2.76-2.18v-1.1c-1.22,0-2.44,0-3.66.07a31.72,31.72,0,0,1-3.65-.07V36c2.37,0,3,.12,3,2.18V53.29L329.07,34.93c-.89,0-1.82,0-2.72.07a18.25,18.25,0,0,1-2.76-.07V36c2.27,0,3,.09,3,2.18ZM311.71,35.64c6.45,0,7.7,4.94,7.7,10.34s-1.25,10.36-7.7,10.36S304,51.37,304,46s1.26-10.34,7.71-10.34m0,21.82c8.73,0,11-3.43,11-11.48s-2.63-11.46-11-11.46-11,3.33-11,11.46,2.67,11.48,11,11.48M293.92,54c0,2.09-.57,2.18-3.07,2.18v1.1c1.5,0,3,0,4.52-.07s3,0,4.52.07v-1.1c-2.5,0-3.08-.09-3.08-2.18V38.21c0-2.12.71-2.18,3.08-2.18v-1.1c-1.5,0-3,0-4.52.07s-3,0-4.52-.07V36c2.5,0,3.07.09,3.07,2.18Zm-9.23,1.13a10,10,0,0,1-4.84,1.25c-6.52,0-8-4.11-8-10,0-5.49,1.38-10.75,7.9-10.55,4.46,0,5.62.77,6,5.23h1.89V35.77a25.29,25.29,0,0,0-7.86-1.25c-8.06.16-11.23,4-11.23,11.61,0,7.39,2.69,11.33,10.42,11.33a28.28,28.28,0,0,0,8.8-1.41,4.26,4.26,0,0,1-.13-1.28v-3c0-1.68.06-2.13,2.5-2.25v-1c-.89,0-2.4,0-3.91.06s-3,0-5.33-.06v1.09c3.82,0,3.85.16,3.85,2.22Zm-36.06,2.08h17.43V50.59h-1.7c-.45,4.53-.71,5.11-4,5.17H254.6V46.1h2.5c3.86,0,3,.8,3.37,3.31h1.42v-7.7h-1.42c0,3.11-.48,3.3-3.37,3.3h-2.5V36.15H260c4.08,0,4.08.36,4.34,4.43H266V34.93H248.63V36c3.11,0,3.08.45,3.08,2.18V53.87c0,1.74,0,2.18-3.08,2.18Zm-22-29.93c1.74-.05,3.43-.14,5.18-.14,4.72,0,6.69,1.23,6.69,6.23,0,6.33-4.68,6.51-9.68,6.51a11.47,11.47,0,0,1-2.19-.09Zm0,14.07a10.18,10.18,0,0,1,3.34.32c1.42.5,7.84,10.64,11,15.63,1.1,0,2.25,0,3.34-.09a20.38,20.38,0,0,1,3.31.09V55.68c-2.43-.19-3.21-1.42-4.45-3-1.33-1.74-6.74-9.81-8.12-12,5-.55,8.12-2.71,8.12-8.07,0-6.79-4.17-7.15-9.9-7.15-2.2,0-7.66.09-8.67.09-2.15,0-4.31,0-6.46-.09V27c4.45,0,4.4.64,4.4,3.11V52.56c0,2.47.05,3.12-4.4,3.12v1.55c2.15,0,4.31,0,6.46-.09s4.31,0,6.47.09V55.68c-4.45,0-4.4-.65-4.4-3.12Zm-35.3,2.06a3.62,3.62,0,0,1-2.6-3.65c0-2.83,2.08-4,4.65-4,4.94,0,4.37,2.79,4.69,5.26h1.79V35.74a18.44,18.44,0,0,0-6.61-1.22c-3.85,0-7.31,1.86-7.31,6.13,0,3.72,2.69,4.81,5.71,5.9,2.76,1,6.22,1.77,6.22,5.33,0,3.21-2.66,4.49-5.49,4.49-5.68,0-4.87-2.95-5.19-6.1H185v5.81a16.7,16.7,0,0,0,6.93,1.38c4.43,0,8.79-1.38,8.79-6.61,0-3.72-2.69-5.1-5.74-6.19Zm-16.83,3.1h-6.87l3.53-8.57,3.22,8.24ZM171,35l-6.9,16.75a26,26,0,0,1-1.6,3.37c-.77.93-1.35.8-2.44.93v1.16c1.25,0,2.54,0,3.79-.07a34.06,34.06,0,0,1,3.78.07V56.05c-1,0-2.66,0-2.66-1.41a5.2,5.2,0,0,1,.29-1.41l2-5.55H175L177,53a4.94,4.94,0,0,1,.51,1.77c0,1.31-2.79,1.25-2.79,1.25v1.16c1.47,0,3,0,4.43-.07s2.91,0,4.39.07v-1.1c-2.53.2-3.37-2.56-3.72-3.49L173.09,35ZM146.91,46l-6.51,8.6c-.9,1.18-1.44,1.38-3.24,1.53v1.1c1.35,0,2.66,0,4-.07a38.14,38.14,0,0,1,4,.07v-1.1c-.55-.06-2.21-.12-2.5-.8-.13-.25-.07-.57.25-1l4.69-7.23,4.27,6a4.53,4.53,0,0,1,1,2.08c0,.78-2.25.9-2.47.93v1.1c1.48,0,3,0,4.43-.07s2.95,0,4.43.07v-1.1C157.34,56,157,55.47,156,54l-6.52-9.25,4.14-5.48c1.61-2.12,2.12-3.15,4.81-3.34v-1c-1.31,0-2.63,0-3.94.07a38.42,38.42,0,0,1-4-.07v1c.58,0,2.15,0,2.44.71a.93.93,0,0,1-.19.9l-4.08,6.22-3.43-5a6.16,6.16,0,0,1-1-1.57c-.44-1.38,2-1.19,2.76-1.22V35c-1.54,0-3.08,0-4.62.07s-3.11,0-4.65-.07v1c2.57,0,3.21,1.57,4.65,3.6ZM118,57.14h17.43V50.59h-1.7c-.45,4.53-.71,5.11-4,5.17H124V46.1h2.5c3.85,0,3,.8,3.37,3.31h1.41v-7.7h-1.41c0,3.11-.48,3.3-3.37,3.3H124V36.15h5.42c4.08,0,4.08.36,4.34,4.43h1.7V34.93H118V36c3.11,0,3.08.45,3.08,2.18V53.87c0,1.74,0,2.18-3.08,2.18Zm.17-31.63H90.68v8.07H93c1-7,1.33-6.33,9.39-6.33V52.56c0,3-.87,3.12-4.63,3.12v1.55c2.39,0,4.54,0,6.7-.09s4.31,0,6.69.09V55.68c-3.76,0-4.63-.1-4.63-3.12V27.25c8.21,0,8.3-.64,9.4,6.33h2.29Z"></path></g></g></g></g></svg> 